<svg xmlns="http://www.w3.org/2000/svg" xmlns:xlink="http://www.w3.org/1999/xlink" width="500" zoomAndPan="magnify" viewBox="0 0 375 374.999991" height="500" preserveAspectRatio="xMidYMid meet" version="1.0"><defs><g/><clipPath id="ec656b7dfc"><path d="M 139.53125 70.261719 L 212 70.261719 L 212 211 L 139.53125 211 Z M 139.53125 70.261719 " clip-rule="nonzero"/></clipPath><clipPath id="12139ed2a9"><path d="M 162 83 L 235.53125 83 L 235.53125 225.511719 L 162 225.511719 Z M 162 83 " clip-rule="nonzero"/></clipPath></defs><rect x="-37.5" width="450" fill="#ffffff" y="-37.499999" height="449.999989" fill-opacity="1"/><rect x="-37.5" width="450" fill="#003456" y="-37.499999" height="449.999989" fill-opacity="1"/><g clip-path="url(#ec656b7dfc)"><path fill="#00c2cb" d="M 211.492188 77.515625 L 198.15625 70.261719 L 198.15625 126.351562 C 196.179688 125.246094 194.117188 124.117188 192.164062 123.0625 C 191.160156 122.5 190.105469 122.066406 189 121.753906 C 187.890625 121.445312 186.761719 121.273438 185.613281 121.230469 C 184.464844 121.191406 183.328125 121.285156 182.203125 121.519531 C 181.074219 121.75 179.992188 122.109375 178.953125 122.597656 L 146.863281 140.625 C 146.863281 140.625 139.644531 144.3125 139.554688 154.324219 C 139.484375 163.121094 139.589844 187.671875 139.554688 191.328125 C 139.523438 194.980469 140.691406 199.550781 146.761719 203.125 C 152.832031 206.699219 158.707031 210.441406 158.707031 210.441406 C 158.707031 210.441406 158.976562 210.398438 158.753906 210.15625 C 158.160156 209.535156 152.820312 205.613281 152.785156 200.015625 C 152.785156 196.160156 152.785156 161.089844 152.785156 161.089844 C 152.785156 161.089844 153.632812 152.300781 160.488281 148.375 C 167.652344 144.25 188.886719 132.234375 193.707031 130.261719 C 197.945312 128.097656 202.550781 129.296875 205.574219 130.613281 L 211.511719 133.855469 Z M 211.492188 77.515625 " fill-opacity="1" fill-rule="nonzero"/></g><g clip-path="url(#12139ed2a9)"><path fill="#00ffff" d="M 235.429688 156.886719 L 235.429688 101.417969 C 235.511719 92.308594 233.28125 89.796875 227.652344 86.289062 L 222.1875 83.425781 L 222.1875 140.40625 C 220.707031 139.46875 218.796875 138.339844 216.40625 137.042969 C 215.402344 136.488281 214.34375 136.058594 213.238281 135.753906 C 212.128906 135.445312 211.003906 135.273438 209.855469 135.234375 C 208.707031 135.191406 207.570312 135.285156 206.445312 135.515625 C 205.320312 135.742188 204.234375 136.097656 203.195312 136.582031 L 170.472656 154.929688 C 170.472656 154.929688 163.023438 158.605469 162.9375 168.601562 C 162.859375 177.402344 162.96875 200.875 162.9375 204.527344 C 162.90625 208.179688 164.292969 212.90625 170.367188 216.476562 C 174.980469 219.191406 177.148438 220.371094 177.894531 220.789062 C 179.21875 221.636719 180.777344 222.578125 182.609375 223.5625 C 187.378906 226.136719 193.234375 225.167969 195.824219 224.027344 C 203.332031 220.722656 227.90625 205.984375 227.90625 205.984375 C 227.90625 205.984375 235.347656 202.316406 235.429688 192.300781 C 235.507812 183.65625 235.40625 161.089844 235.429688 156.886719 Z M 184.089844 162.667969 C 187.109375 160.902344 192.652344 157.734375 198.417969 154.527344 C 198.417969 163.003906 198.453125 170.765625 198.453125 170.765625 C 198.417969 172.074219 198.214844 173.355469 197.839844 174.609375 C 197.46875 175.863281 196.9375 177.046875 196.253906 178.164062 C 195.570312 179.28125 194.753906 180.289062 193.804688 181.191406 C 192.855469 182.089844 191.808594 182.855469 190.660156 183.480469 C 187.582031 185.175781 182.003906 188.375 176.226562 191.625 C 176.226562 183.3125 176.199219 175.386719 176.199219 175.386719 C 176.199219 175.386719 175.628906 167.609375 184.089844 162.667969 Z M 222.1875 185.558594 C 222.183594 186.878906 221.996094 188.171875 221.632812 189.441406 C 221.269531 190.710938 220.738281 191.90625 220.042969 193.03125 C 219.347656 194.152344 218.511719 195.160156 217.535156 196.050781 C 216.5625 196.941406 215.484375 197.683594 214.304688 198.273438 C 206.972656 202.089844 185.902344 214.417969 181.085938 216.386719 C 180.617188 216.59375 180.171875 216.777344 179.75 216.929688 C 177.125 217.519531 176.132812 215.507812 176.222656 210.015625 C 176.222656 209.476562 176.222656 208.410156 176.222656 206.972656 L 204.285156 191.195312 C 204.285156 191.195312 211.355469 187.519531 211.4375 177.507812 C 211.496094 170.820312 211.4375 155.832031 211.4375 147.414062 C 214.058594 146.039062 216.160156 144.992188 217.316406 144.523438 C 217.742188 144.328125 218.164062 144.152344 218.589844 143.996094 C 221.273438 143.347656 222.285156 145.347656 222.191406 150.894531 C 222.097656 154.761719 222.1875 185.558594 222.1875 185.558594 Z M 222.1875 185.558594 " fill-opacity="1" fill-rule="nonzero"/></g><g fill="#00ffff" fill-opacity="1"><g transform="translate(44.314497, 273.820085)"><g><path d="M 17.585938 -36.84375 L 4.488281 -36.84375 L 4.488281 0 L 17.585938 0 C 29.539062 0 35.539062 -9.082031 35.539062 -18.214844 C 35.539062 -27.347656 29.539062 -36.84375 17.585938 -36.84375 Z M 17.585938 -5.269531 L 9.757812 -5.269531 L 9.757812 -31.574219 L 17.585938 -31.574219 C 26.042969 -31.574219 30.320312 -24.683594 30.320312 -18.214844 C 30.320312 -11.742188 26.042969 -5.269531 17.585938 -5.269531 Z M 17.585938 -5.269531 "/></g></g></g><g fill="#00ffff" fill-opacity="1"><g transform="translate(82.149329, 273.820085)"><g><path d="M 33.140625 -14.089844 C 33.140625 -23.796875 25.625 -28.703125 18.003906 -28.703125 C 10.332031 -28.703125 2.714844 -23.851562 2.714844 -14.089844 C 2.714844 -4.382812 10.28125 0.523438 17.847656 0.523438 C 25.519531 0.523438 33.140625 -4.332031 33.140625 -14.089844 Z M 7.828125 -14.089844 C 7.828125 -20.824219 12.890625 -24.164062 18.003906 -24.164062 C 23.015625 -24.164062 28.078125 -20.769531 28.078125 -14.089844 C 28.078125 -7.464844 23.015625 -4.070312 17.953125 -4.070312 C 12.890625 -4.070312 7.828125 -7.410156 7.828125 -14.089844 Z M 7.828125 -14.089844 "/></g></g></g><g fill="#00ffff" fill-opacity="1"><g transform="translate(118.366399, 273.820085)"><g><path d="M 9.707031 -24.738281 L 9.707031 -28.703125 L 4.59375 -28.703125 L 4.59375 0 L 9.707031 0 L 9.707031 -15.34375 C 9.707031 -20.875 13.097656 -23.953125 17.585938 -23.953125 C 22.285156 -23.953125 23.796875 -19.832031 23.796875 -15.867188 L 23.796875 0 L 28.914062 0 L 28.914062 -15.917969 C 28.914062 -20.511719 31.417969 -23.953125 36.425781 -23.953125 C 41.332031 -23.953125 42.324219 -19.988281 42.324219 -16.023438 L 42.324219 0 L 47.4375 0 L 47.4375 -16.074219 C 47.4375 -23.222656 44.046875 -28.703125 36.269531 -28.703125 C 32.148438 -28.652344 28.964844 -26.929688 27.242188 -23.796875 C 25.15625 -27.765625 21.605469 -28.703125 17.640625 -28.703125 C 14.351562 -28.703125 11.636719 -27.554688 9.707031 -24.738281 Z M 9.707031 -24.738281 "/></g></g></g><g fill="#00ffff" fill-opacity="1"><g transform="translate(169.769588, 273.820085)"><g><path d="M 8.820312 -24.738281 L 8.820312 -36.53125 L 3.757812 -36.53125 L 3.757812 0 L 8.820312 0 L 8.820312 -15.34375 C 8.820312 -20.25 11.742188 -24.109375 17.117188 -24.109375 C 23.277344 -24.109375 24.683594 -20.457031 24.683594 -15.132812 L 24.683594 0 L 29.800781 0 L 29.800781 -15.1875 C 29.800781 -23.277344 26.09375 -28.652344 17.484375 -28.652344 C 13.933594 -28.652344 10.960938 -27.765625 8.820312 -24.738281 Z M 8.820312 -24.738281 "/></g></g></g><g fill="#00ffff" fill-opacity="1"><g transform="translate(203.586107, 273.820085)"><g><path d="M 33.242188 0 L 33.242188 -28.234375 L 28.128906 -28.234375 L 28.183594 -24.476562 C 25.675781 -27.867188 21.449219 -28.703125 17.953125 -28.703125 C 8.402344 -28.703125 2.871094 -21.867188 2.871094 -14.246094 C 2.871094 -6.472656 8.195312 0.46875 18.058594 0.46875 C 21.554688 0.417969 26.09375 -0.730469 28.128906 -3.808594 L 28.128906 0 Z M 28.128906 -14.144531 C 28.128906 -7.359375 22.648438 -4.070312 17.953125 -4.070312 C 11.691406 -4.070312 7.984375 -8.925781 7.984375 -14.246094 C 7.984375 -19.832031 11.742188 -24.214844 17.953125 -24.214844 C 22.753906 -24.214844 28.128906 -20.875 28.128906 -14.144531 Z M 28.128906 -14.144531 "/></g></g></g><g fill="#00ffff" fill-opacity="1"><g transform="translate(240.22068, 273.820085)"><g><path d="M 31.574219 -10.75 L 26.304688 -10.75 C 25.050781 -6.261719 21.292969 -4.070312 17.429688 -4.070312 C 12.578125 -4.070312 7.777344 -7.359375 7.777344 -14.144531 C 7.777344 -20.875 12.628906 -24.164062 17.378906 -24.164062 C 21.242188 -24.164062 25.050781 -21.972656 26.304688 -17.484375 L 31.574219 -17.484375 C 30.164062 -25 23.746094 -28.703125 17.328125 -28.703125 C 9.96875 -28.703125 2.660156 -23.902344 2.660156 -14.144531 C 2.660156 -4.4375 9.914062 0.417969 17.222656 0.417969 C 23.640625 0.417969 30.164062 -3.183594 31.574219 -10.75 Z M 31.574219 -10.75 "/></g></g></g><g fill="#00ffff" fill-opacity="1"><g transform="translate(274.402508, 273.820085)"><g><path d="M 13.621094 -19.882812 L 9.289062 -14.71875 L 9.289062 -36.53125 L 4.175781 -36.53125 L 4.175781 0 L 9.289062 0 L 9.289062 -8.609375 L 12.941406 -12.523438 L 22.441406 0 L 28.339844 0 L 28.339844 -0.46875 L 16.230469 -16.074219 L 27.609375 -28.234375 L 21.449219 -28.234375 Z M 13.621094 -19.882812 "/></g></g></g><g fill="#00ffff" fill-opacity="1"><g transform="translate(303.470108, 273.820085)"><g><path d="M 7.464844 -20.09375 C 7.464844 -23.015625 10.386719 -24.214844 13.515625 -24.214844 C 16.597656 -24.214844 19.257812 -23.015625 19.519531 -20.511719 L 24.582031 -20.511719 C 24.214844 -26.40625 19.257812 -28.808594 13.671875 -28.808594 C 8.195312 -28.808594 2.402344 -26.511719 2.402344 -19.988281 C 2.402344 -13.671875 8.402344 -12.109375 13.464844 -11.898438 C 15.917969 -11.792969 20.300781 -11.273438 20.300781 -8.140625 C 20.300781 -4.800781 16.28125 -3.964844 13.726562 -3.964844 C 10.230469 -3.964844 7.304688 -5.53125 7.097656 -8.664062 L 1.984375 -8.664062 C 2.347656 -1.984375 7.777344 0.46875 13.621094 0.46875 C 18.945312 0.46875 25.414062 -1.460938 25.414062 -8.035156 C 25.414062 -14.457031 19.363281 -16.125 14.039062 -16.492188 C 11.535156 -16.648438 7.464844 -16.542969 7.464844 -20.09375 Z M 7.464844 -20.09375 "/></g></g></g></svg>